<mxfile host="d4827483-3fcf-48cd-935d-dd3d92a9b830" modified="2020-10-04T14:21:25.680Z" agent="5.0 (X11; Linux x86_64) AppleWebKit/537.36 (KHTML, like Gecko) Code/1.49.3 Chrome/83.0.4103.122 Electron/9.2.1 Safari/537.36" etag="1zVeL2vyDsbNLXgoo9UB" version="13.6.5">
    <diagram id="C5RBs43oDa-KdzZeNtuy" name="Page-1">
        <mxGraphModel dx="890" dy="1768" grid="1" gridSize="10" guides="1" tooltips="1" connect="1" arrows="1" fold="1" page="1" pageScale="1" pageWidth="827" pageHeight="1169" math="0" shadow="0">
            <root>
                <mxCell id="WIyWlLk6GJQsqaUBKTNV-0"/>
                <mxCell id="WIyWlLk6GJQsqaUBKTNV-1" parent="WIyWlLk6GJQsqaUBKTNV-0"/>
                <mxCell id="dkqBunsD5Hl_xN2AM6MB-7" style="edgeStyle=orthogonalEdgeStyle;rounded=0;orthogonalLoop=1;jettySize=auto;html=1;exitX=0.5;exitY=1;exitDx=0;exitDy=0;entryX=0.5;entryY=0;entryDx=0;entryDy=0;entryPerimeter=0;" parent="WIyWlLk6GJQsqaUBKTNV-1" source="dkqBunsD5Hl_xN2AM6MB-1" target="dkqBunsD5Hl_xN2AM6MB-6" edge="1">
                    <mxGeometry relative="1" as="geometry"/>
                </mxCell>
                <mxCell id="dkqBunsD5Hl_xN2AM6MB-1" value="&lt;div align=&quot;center&quot;&gt;read next pixel line:&lt;/div&gt;&lt;div align=&quot;center&quot;&gt;bp = count black pixels&lt;/div&gt;&lt;div align=&quot;center&quot;&gt;wp = count white pixels&lt;br&gt;&lt;/div&gt;" style="rounded=1;whiteSpace=wrap;html=1;absoluteArcSize=1;arcSize=14;strokeWidth=2;align=center;" parent="WIyWlLk6GJQsqaUBKTNV-1" vertex="1">
                    <mxGeometry x="284.35" y="-950" width="133.74" height="80" as="geometry"/>
                </mxCell>
                <mxCell id="dkqBunsD5Hl_xN2AM6MB-16" value="&lt;div&gt;yes&lt;/div&gt;" style="edgeStyle=orthogonalEdgeStyle;rounded=0;orthogonalLoop=1;jettySize=auto;html=1;" parent="WIyWlLk6GJQsqaUBKTNV-1" source="dkqBunsD5Hl_xN2AM6MB-6" target="dkqBunsD5Hl_xN2AM6MB-15" edge="1">
                    <mxGeometry relative="1" as="geometry"/>
                </mxCell>
                <mxCell id="dkqBunsD5Hl_xN2AM6MB-21" value="" style="edgeStyle=orthogonalEdgeStyle;rounded=0;orthogonalLoop=1;jettySize=auto;html=1;" parent="WIyWlLk6GJQsqaUBKTNV-1" source="dkqBunsD5Hl_xN2AM6MB-6" target="dkqBunsD5Hl_xN2AM6MB-20" edge="1">
                    <mxGeometry relative="1" as="geometry"/>
                </mxCell>
                <mxCell id="dkqBunsD5Hl_xN2AM6MB-6" value="bp/total &amp;gt;= th" style="strokeWidth=2;html=1;shape=mxgraph.flowchart.decision;whiteSpace=wrap;" parent="WIyWlLk6GJQsqaUBKTNV-1" vertex="1">
                    <mxGeometry x="300.45" y="-840" width="100.45" height="90" as="geometry"/>
                </mxCell>
                <mxCell id="dkqBunsD5Hl_xN2AM6MB-28" value="" style="edgeStyle=orthogonalEdgeStyle;rounded=0;orthogonalLoop=1;jettySize=auto;html=1;" parent="WIyWlLk6GJQsqaUBKTNV-1" source="dkqBunsD5Hl_xN2AM6MB-15" target="dkqBunsD5Hl_xN2AM6MB-27" edge="1">
                    <mxGeometry relative="1" as="geometry"/>
                </mxCell>
                <mxCell id="dkqBunsD5Hl_xN2AM6MB-15" value="sth++" style="whiteSpace=wrap;html=1;strokeWidth=2;" parent="WIyWlLk6GJQsqaUBKTNV-1" vertex="1">
                    <mxGeometry x="292.635" y="-675" width="120" height="60" as="geometry"/>
                </mxCell>
                <mxCell id="dkqBunsD5Hl_xN2AM6MB-24" value="yes" style="edgeStyle=orthogonalEdgeStyle;rounded=0;orthogonalLoop=1;jettySize=auto;html=1;" parent="WIyWlLk6GJQsqaUBKTNV-1" source="dkqBunsD5Hl_xN2AM6MB-20" target="dkqBunsD5Hl_xN2AM6MB-23" edge="1">
                    <mxGeometry relative="1" as="geometry"/>
                </mxCell>
                <mxCell id="dkqBunsD5Hl_xN2AM6MB-47" style="edgeStyle=orthogonalEdgeStyle;rounded=0;orthogonalLoop=1;jettySize=auto;html=1;entryX=1;entryY=0.5;entryDx=0;entryDy=0;entryPerimeter=0;" parent="WIyWlLk6GJQsqaUBKTNV-1" source="dkqBunsD5Hl_xN2AM6MB-20" target="dkqBunsD5Hl_xN2AM6MB-44" edge="1">
                    <mxGeometry relative="1" as="geometry">
                        <Array as="points">
                            <mxPoint x="629.81" y="-795"/>
                            <mxPoint x="629.81" y="-492"/>
                        </Array>
                    </mxGeometry>
                </mxCell>
                <mxCell id="dkqBunsD5Hl_xN2AM6MB-20" value="&lt;div&gt;sth &amp;gt;= min&lt;br&gt;&lt;/div&gt;" style="strokeWidth=2;html=1;shape=mxgraph.flowchart.decision;whiteSpace=wrap;" parent="WIyWlLk6GJQsqaUBKTNV-1" vertex="1">
                    <mxGeometry x="479.81" y="-830" width="74.37" height="70" as="geometry"/>
                </mxCell>
                <mxCell id="dkqBunsD5Hl_xN2AM6MB-35" style="edgeStyle=orthogonalEdgeStyle;rounded=0;orthogonalLoop=1;jettySize=auto;html=1;entryX=1;entryY=0.5;entryDx=0;entryDy=0;" parent="WIyWlLk6GJQsqaUBKTNV-1" source="dkqBunsD5Hl_xN2AM6MB-44" target="dkqBunsD5Hl_xN2AM6MB-27" edge="1">
                    <mxGeometry relative="1" as="geometry">
                        <Array as="points"/>
                    </mxGeometry>
                </mxCell>
                <mxCell id="dkqBunsD5Hl_xN2AM6MB-48" style="edgeStyle=orthogonalEdgeStyle;rounded=0;orthogonalLoop=1;jettySize=auto;html=1;entryX=0.5;entryY=0;entryDx=0;entryDy=0;entryPerimeter=0;" parent="WIyWlLk6GJQsqaUBKTNV-1" source="dkqBunsD5Hl_xN2AM6MB-23" target="dkqBunsD5Hl_xN2AM6MB-44" edge="1">
                    <mxGeometry relative="1" as="geometry"/>
                </mxCell>
                <mxCell id="dkqBunsD5Hl_xN2AM6MB-23" value="&lt;div&gt;text_lines++&lt;/div&gt;&lt;div align=&quot;left&quot;&gt;sth = 0&lt;br&gt;&lt;/div&gt;" style="whiteSpace=wrap;html=1;strokeWidth=2;" parent="WIyWlLk6GJQsqaUBKTNV-1" vertex="1">
                    <mxGeometry x="456.99499999999995" y="-675" width="120" height="60" as="geometry"/>
                </mxCell>
                <mxCell id="dkqBunsD5Hl_xN2AM6MB-37" style="edgeStyle=orthogonalEdgeStyle;rounded=0;orthogonalLoop=1;jettySize=auto;html=1;exitX=0;exitY=0.5;exitDx=0;exitDy=0;entryX=0;entryY=0.5;entryDx=0;entryDy=0;" parent="WIyWlLk6GJQsqaUBKTNV-1" source="dkqBunsD5Hl_xN2AM6MB-27" target="dkqBunsD5Hl_xN2AM6MB-1" edge="1">
                    <mxGeometry relative="1" as="geometry">
                        <Array as="points">
                            <mxPoint x="197" y="-492"/>
                            <mxPoint x="197" y="-910"/>
                        </Array>
                    </mxGeometry>
                </mxCell>
                <mxCell id="dkqBunsD5Hl_xN2AM6MB-40" value="yes" style="edgeStyle=orthogonalEdgeStyle;rounded=0;orthogonalLoop=1;jettySize=auto;html=1;entryX=0.5;entryY=0;entryDx=0;entryDy=0;entryPerimeter=0;" parent="WIyWlLk6GJQsqaUBKTNV-1" source="dkqBunsD5Hl_xN2AM6MB-27" target="dkqBunsD5Hl_xN2AM6MB-38" edge="1">
                    <mxGeometry relative="1" as="geometry"/>
                </mxCell>
                <mxCell id="dkqBunsD5Hl_xN2AM6MB-27" value="last pixel line " style="rhombus;whiteSpace=wrap;html=1;strokeWidth=2;" parent="WIyWlLk6GJQsqaUBKTNV-1" vertex="1">
                    <mxGeometry x="300.45" y="-545" width="104.37" height="105" as="geometry"/>
                </mxCell>
                <mxCell id="dkqBunsD5Hl_xN2AM6MB-38" value="end" style="strokeWidth=2;html=1;shape=mxgraph.flowchart.terminator;whiteSpace=wrap;" parent="WIyWlLk6GJQsqaUBKTNV-1" vertex="1">
                    <mxGeometry x="302.64" y="-390" width="100" height="60" as="geometry"/>
                </mxCell>
                <mxCell id="dkqBunsD5Hl_xN2AM6MB-51" value="" style="edgeStyle=orthogonalEdgeStyle;rounded=0;orthogonalLoop=1;jettySize=auto;html=1;" parent="WIyWlLk6GJQsqaUBKTNV-1" source="dkqBunsD5Hl_xN2AM6MB-41" target="dkqBunsD5Hl_xN2AM6MB-50" edge="1">
                    <mxGeometry relative="1" as="geometry"/>
                </mxCell>
                <mxCell id="dkqBunsD5Hl_xN2AM6MB-41" value="start" style="strokeWidth=2;html=1;shape=mxgraph.flowchart.start_2;whiteSpace=wrap;" parent="WIyWlLk6GJQsqaUBKTNV-1" vertex="1">
                    <mxGeometry x="324.49" y="-1150" width="53.45" height="50" as="geometry"/>
                </mxCell>
                <mxCell id="dkqBunsD5Hl_xN2AM6MB-44" value="" style="verticalLabelPosition=bottom;verticalAlign=top;html=1;shape=mxgraph.flowchart.on-page_reference;" parent="WIyWlLk6GJQsqaUBKTNV-1" vertex="1">
                    <mxGeometry x="502" y="-507.5" width="30" height="30" as="geometry"/>
                </mxCell>
                <mxCell id="dkqBunsD5Hl_xN2AM6MB-52" value="" style="edgeStyle=orthogonalEdgeStyle;rounded=0;orthogonalLoop=1;jettySize=auto;html=1;" parent="WIyWlLk6GJQsqaUBKTNV-1" source="dkqBunsD5Hl_xN2AM6MB-50" target="dkqBunsD5Hl_xN2AM6MB-1" edge="1">
                    <mxGeometry relative="1" as="geometry"/>
                </mxCell>
                <mxCell id="dkqBunsD5Hl_xN2AM6MB-50" value="text_lines = 0" style="whiteSpace=wrap;html=1;strokeWidth=2;" parent="WIyWlLk6GJQsqaUBKTNV-1" vertex="1">
                    <mxGeometry x="291.21500000000003" y="-1060" width="120" height="60" as="geometry"/>
                </mxCell>
            </root>
        </mxGraphModel>
    </diagram>
</mxfile>